G75*
G70*
%OFA0B0*%
%FSLAX24Y24*%
%IPPOS*%
%LPD*%
%AMOC8*
5,1,8,0,0,1.08239X$1,22.5*
%
%ADD10C,0.0000*%
%ADD11R,0.0500X0.0220*%
%ADD12R,0.0220X0.0500*%
%ADD13R,0.0453X0.0276*%
%ADD14C,0.0600*%
%ADD15C,0.0440*%
%ADD16R,0.0276X0.0453*%
%ADD17OC8,0.0520*%
%ADD18C,0.0520*%
%ADD19C,0.0520*%
%ADD20C,0.0335*%
%ADD21OC8,0.0600*%
%ADD22R,0.0197X0.0551*%
%ADD23R,0.0551X0.1850*%
%ADD24R,0.0433X0.1496*%
%ADD25R,0.0197X0.0591*%
%ADD26R,0.0630X0.0460*%
%ADD27C,0.0436*%
%ADD28C,0.0515*%
%ADD29R,0.0137X0.0550*%
%ADD30C,0.0120*%
%ADD31C,0.0100*%
%ADD32C,0.0240*%
%ADD33C,0.0320*%
%ADD34C,0.0180*%
%ADD35C,0.0240*%
%ADD36C,0.0160*%
%ADD37C,0.0200*%
%ADD38C,0.0500*%
%ADD39C,0.0197*%
%ADD40C,0.0277*%
%ADD41C,0.0400*%
%ADD42C,0.0560*%
D10*
X001110Y000743D02*
X001110Y020428D01*
X018039Y020428D01*
X018039Y000743D01*
X001110Y000743D01*
X001641Y001924D02*
X001643Y001974D01*
X001649Y002024D01*
X001659Y002074D01*
X001672Y002122D01*
X001689Y002170D01*
X001710Y002216D01*
X001734Y002260D01*
X001762Y002302D01*
X001793Y002342D01*
X001827Y002379D01*
X001864Y002414D01*
X001903Y002445D01*
X001944Y002474D01*
X001988Y002499D01*
X002034Y002521D01*
X002081Y002539D01*
X002129Y002553D01*
X002178Y002564D01*
X002228Y002571D01*
X002278Y002574D01*
X002329Y002573D01*
X002379Y002568D01*
X002429Y002559D01*
X002477Y002547D01*
X002525Y002530D01*
X002571Y002510D01*
X002616Y002487D01*
X002659Y002460D01*
X002699Y002430D01*
X002737Y002397D01*
X002772Y002361D01*
X002805Y002322D01*
X002834Y002281D01*
X002860Y002238D01*
X002883Y002193D01*
X002902Y002146D01*
X002917Y002098D01*
X002929Y002049D01*
X002937Y001999D01*
X002941Y001949D01*
X002941Y001899D01*
X002937Y001849D01*
X002929Y001799D01*
X002917Y001750D01*
X002902Y001702D01*
X002883Y001655D01*
X002860Y001610D01*
X002834Y001567D01*
X002805Y001526D01*
X002772Y001487D01*
X002737Y001451D01*
X002699Y001418D01*
X002659Y001388D01*
X002616Y001361D01*
X002571Y001338D01*
X002525Y001318D01*
X002477Y001301D01*
X002429Y001289D01*
X002379Y001280D01*
X002329Y001275D01*
X002278Y001274D01*
X002228Y001277D01*
X002178Y001284D01*
X002129Y001295D01*
X002081Y001309D01*
X002034Y001327D01*
X001988Y001349D01*
X001944Y001374D01*
X001903Y001403D01*
X001864Y001434D01*
X001827Y001469D01*
X001793Y001506D01*
X001762Y001546D01*
X001734Y001588D01*
X001710Y001632D01*
X001689Y001678D01*
X001672Y001726D01*
X001659Y001774D01*
X001649Y001824D01*
X001643Y001874D01*
X001641Y001924D01*
X001641Y019247D02*
X001643Y019297D01*
X001649Y019347D01*
X001659Y019397D01*
X001672Y019445D01*
X001689Y019493D01*
X001710Y019539D01*
X001734Y019583D01*
X001762Y019625D01*
X001793Y019665D01*
X001827Y019702D01*
X001864Y019737D01*
X001903Y019768D01*
X001944Y019797D01*
X001988Y019822D01*
X002034Y019844D01*
X002081Y019862D01*
X002129Y019876D01*
X002178Y019887D01*
X002228Y019894D01*
X002278Y019897D01*
X002329Y019896D01*
X002379Y019891D01*
X002429Y019882D01*
X002477Y019870D01*
X002525Y019853D01*
X002571Y019833D01*
X002616Y019810D01*
X002659Y019783D01*
X002699Y019753D01*
X002737Y019720D01*
X002772Y019684D01*
X002805Y019645D01*
X002834Y019604D01*
X002860Y019561D01*
X002883Y019516D01*
X002902Y019469D01*
X002917Y019421D01*
X002929Y019372D01*
X002937Y019322D01*
X002941Y019272D01*
X002941Y019222D01*
X002937Y019172D01*
X002929Y019122D01*
X002917Y019073D01*
X002902Y019025D01*
X002883Y018978D01*
X002860Y018933D01*
X002834Y018890D01*
X002805Y018849D01*
X002772Y018810D01*
X002737Y018774D01*
X002699Y018741D01*
X002659Y018711D01*
X002616Y018684D01*
X002571Y018661D01*
X002525Y018641D01*
X002477Y018624D01*
X002429Y018612D01*
X002379Y018603D01*
X002329Y018598D01*
X002278Y018597D01*
X002228Y018600D01*
X002178Y018607D01*
X002129Y018618D01*
X002081Y018632D01*
X002034Y018650D01*
X001988Y018672D01*
X001944Y018697D01*
X001903Y018726D01*
X001864Y018757D01*
X001827Y018792D01*
X001793Y018829D01*
X001762Y018869D01*
X001734Y018911D01*
X001710Y018955D01*
X001689Y019001D01*
X001672Y019049D01*
X001659Y019097D01*
X001649Y019147D01*
X001643Y019197D01*
X001641Y019247D01*
X016208Y019247D02*
X016210Y019297D01*
X016216Y019347D01*
X016226Y019397D01*
X016239Y019445D01*
X016256Y019493D01*
X016277Y019539D01*
X016301Y019583D01*
X016329Y019625D01*
X016360Y019665D01*
X016394Y019702D01*
X016431Y019737D01*
X016470Y019768D01*
X016511Y019797D01*
X016555Y019822D01*
X016601Y019844D01*
X016648Y019862D01*
X016696Y019876D01*
X016745Y019887D01*
X016795Y019894D01*
X016845Y019897D01*
X016896Y019896D01*
X016946Y019891D01*
X016996Y019882D01*
X017044Y019870D01*
X017092Y019853D01*
X017138Y019833D01*
X017183Y019810D01*
X017226Y019783D01*
X017266Y019753D01*
X017304Y019720D01*
X017339Y019684D01*
X017372Y019645D01*
X017401Y019604D01*
X017427Y019561D01*
X017450Y019516D01*
X017469Y019469D01*
X017484Y019421D01*
X017496Y019372D01*
X017504Y019322D01*
X017508Y019272D01*
X017508Y019222D01*
X017504Y019172D01*
X017496Y019122D01*
X017484Y019073D01*
X017469Y019025D01*
X017450Y018978D01*
X017427Y018933D01*
X017401Y018890D01*
X017372Y018849D01*
X017339Y018810D01*
X017304Y018774D01*
X017266Y018741D01*
X017226Y018711D01*
X017183Y018684D01*
X017138Y018661D01*
X017092Y018641D01*
X017044Y018624D01*
X016996Y018612D01*
X016946Y018603D01*
X016896Y018598D01*
X016845Y018597D01*
X016795Y018600D01*
X016745Y018607D01*
X016696Y018618D01*
X016648Y018632D01*
X016601Y018650D01*
X016555Y018672D01*
X016511Y018697D01*
X016470Y018726D01*
X016431Y018757D01*
X016394Y018792D01*
X016360Y018829D01*
X016329Y018869D01*
X016301Y018911D01*
X016277Y018955D01*
X016256Y019001D01*
X016239Y019049D01*
X016226Y019097D01*
X016216Y019147D01*
X016210Y019197D01*
X016208Y019247D01*
X016208Y001924D02*
X016210Y001974D01*
X016216Y002024D01*
X016226Y002074D01*
X016239Y002122D01*
X016256Y002170D01*
X016277Y002216D01*
X016301Y002260D01*
X016329Y002302D01*
X016360Y002342D01*
X016394Y002379D01*
X016431Y002414D01*
X016470Y002445D01*
X016511Y002474D01*
X016555Y002499D01*
X016601Y002521D01*
X016648Y002539D01*
X016696Y002553D01*
X016745Y002564D01*
X016795Y002571D01*
X016845Y002574D01*
X016896Y002573D01*
X016946Y002568D01*
X016996Y002559D01*
X017044Y002547D01*
X017092Y002530D01*
X017138Y002510D01*
X017183Y002487D01*
X017226Y002460D01*
X017266Y002430D01*
X017304Y002397D01*
X017339Y002361D01*
X017372Y002322D01*
X017401Y002281D01*
X017427Y002238D01*
X017450Y002193D01*
X017469Y002146D01*
X017484Y002098D01*
X017496Y002049D01*
X017504Y001999D01*
X017508Y001949D01*
X017508Y001899D01*
X017504Y001849D01*
X017496Y001799D01*
X017484Y001750D01*
X017469Y001702D01*
X017450Y001655D01*
X017427Y001610D01*
X017401Y001567D01*
X017372Y001526D01*
X017339Y001487D01*
X017304Y001451D01*
X017266Y001418D01*
X017226Y001388D01*
X017183Y001361D01*
X017138Y001338D01*
X017092Y001318D01*
X017044Y001301D01*
X016996Y001289D01*
X016946Y001280D01*
X016896Y001275D01*
X016845Y001274D01*
X016795Y001277D01*
X016745Y001284D01*
X016696Y001295D01*
X016648Y001309D01*
X016601Y001327D01*
X016555Y001349D01*
X016511Y001374D01*
X016470Y001403D01*
X016431Y001434D01*
X016394Y001469D01*
X016360Y001506D01*
X016329Y001546D01*
X016301Y001588D01*
X016277Y001632D01*
X016256Y001678D01*
X016239Y001726D01*
X016226Y001774D01*
X016216Y001824D01*
X016210Y001874D01*
X016208Y001924D01*
D11*
X009982Y005366D03*
X009982Y005681D03*
X009982Y005996D03*
X009982Y006310D03*
X009982Y006625D03*
X009982Y006940D03*
X009982Y007255D03*
X009982Y007570D03*
X006602Y007570D03*
X006602Y007255D03*
X006602Y006940D03*
X006602Y006625D03*
X006602Y006310D03*
X006602Y005996D03*
X006602Y005681D03*
X006602Y005366D03*
D12*
X007190Y004778D03*
X007505Y004778D03*
X007820Y004778D03*
X008135Y004778D03*
X008450Y004778D03*
X008765Y004778D03*
X009079Y004778D03*
X009394Y004778D03*
X009394Y008158D03*
X009079Y008158D03*
X008765Y008158D03*
X008450Y008158D03*
X008135Y008158D03*
X007820Y008158D03*
X007505Y008158D03*
X007190Y008158D03*
D13*
X007409Y010093D03*
X007409Y010841D03*
X007409Y011392D03*
X007409Y012140D03*
X008590Y011865D03*
X008590Y011117D03*
X011307Y007652D03*
X011307Y006904D03*
X011307Y006117D03*
X011307Y005369D03*
X011346Y004660D03*
X011346Y003912D03*
X012764Y005369D03*
X012764Y006117D03*
X012764Y006904D03*
X012764Y007652D03*
X012764Y008479D03*
X012764Y009227D03*
X008787Y015684D03*
X008787Y016432D03*
X004840Y017377D03*
X004840Y018125D03*
X004839Y018752D03*
X004839Y019500D03*
X004055Y019500D03*
X004055Y018752D03*
X004053Y018125D03*
X004053Y017377D03*
X003118Y017652D03*
X003118Y016904D03*
X002134Y016904D03*
X002134Y017652D03*
X004403Y009687D03*
X004403Y008939D03*
X005244Y007101D03*
X005244Y006353D03*
X007151Y002175D03*
X007151Y001427D03*
D14*
X013782Y004262D02*
X014382Y004262D01*
X014382Y006042D02*
X013782Y006042D01*
X013782Y007097D02*
X014382Y007097D01*
X014382Y008877D02*
X013782Y008877D01*
X016342Y008877D02*
X016942Y008877D01*
X016942Y007097D02*
X016342Y007097D01*
X016342Y006042D02*
X016942Y006042D01*
X016942Y004262D02*
X016342Y004262D01*
X002828Y011818D02*
X002228Y011818D01*
X002228Y012818D02*
X002828Y012818D01*
D15*
X003627Y005818D02*
X004067Y005818D01*
X004067Y003897D02*
X003627Y003897D01*
D16*
X002548Y003826D03*
X001800Y003826D03*
X001800Y005893D03*
X002548Y005893D03*
X003645Y007670D03*
X004393Y007670D03*
X007402Y009291D03*
X008150Y009291D03*
X012118Y004629D03*
X012866Y004629D03*
X010493Y002870D03*
X009745Y002870D03*
X003379Y015977D03*
X002631Y015977D03*
X012035Y016486D03*
X012783Y016486D03*
X015382Y017633D03*
X016130Y017633D03*
X015972Y016530D03*
X016720Y016530D03*
D17*
X002501Y014606D03*
D18*
X003301Y014606D03*
D19*
X002709Y009696D02*
X002189Y009696D01*
X002189Y008696D02*
X002709Y008696D01*
X002709Y007696D02*
X002189Y007696D01*
D20*
X010372Y011274D02*
X010372Y011274D01*
X009526Y011274D01*
X009526Y011274D01*
X010372Y011274D01*
X010372Y011766D02*
X010372Y011766D01*
X009526Y011766D01*
X009526Y011766D01*
X010372Y011766D01*
X010372Y012259D02*
X010372Y012259D01*
X009526Y012259D01*
X009526Y012259D01*
X010372Y012259D01*
X010372Y012751D02*
X010372Y012751D01*
X009526Y012751D01*
X009526Y012751D01*
X010372Y012751D01*
X010372Y013243D02*
X010372Y013243D01*
X009526Y013243D01*
X009526Y013243D01*
X010372Y013243D01*
X010372Y013735D02*
X010372Y013735D01*
X009526Y013735D01*
X009526Y013735D01*
X010372Y013735D01*
X010372Y014227D02*
X010372Y014227D01*
X009526Y014227D01*
X009526Y014227D01*
X010372Y014227D01*
X010372Y014719D02*
X010372Y014719D01*
X009526Y014719D01*
X009526Y014719D01*
X010372Y014719D01*
X010815Y014946D02*
X010815Y014946D01*
X010815Y015792D01*
X010815Y015792D01*
X010815Y014946D01*
X010815Y015280D02*
X010815Y015280D01*
X010815Y015614D02*
X010815Y015614D01*
X011307Y014946D02*
X011307Y014946D01*
X011307Y015792D01*
X011307Y015792D01*
X011307Y014946D01*
X011307Y015280D02*
X011307Y015280D01*
X011307Y015614D02*
X011307Y015614D01*
X011799Y014946D02*
X011799Y014946D01*
X011799Y015792D01*
X011799Y015792D01*
X011799Y014946D01*
X011799Y015280D02*
X011799Y015280D01*
X011799Y015614D02*
X011799Y015614D01*
X012291Y014946D02*
X012291Y014946D01*
X012291Y015792D01*
X012291Y015792D01*
X012291Y014946D01*
X012291Y015280D02*
X012291Y015280D01*
X012291Y015614D02*
X012291Y015614D01*
X012783Y014946D02*
X012783Y014946D01*
X012783Y015792D01*
X012783Y015792D01*
X012783Y014946D01*
X012783Y015280D02*
X012783Y015280D01*
X012783Y015614D02*
X012783Y015614D01*
X013276Y014946D02*
X013276Y014946D01*
X013276Y015792D01*
X013276Y015792D01*
X013276Y014946D01*
X013276Y015280D02*
X013276Y015280D01*
X013276Y015614D02*
X013276Y015614D01*
X013768Y014946D02*
X013768Y014946D01*
X013768Y015792D01*
X013768Y015792D01*
X013768Y014946D01*
X013768Y015280D02*
X013768Y015280D01*
X013768Y015614D02*
X013768Y015614D01*
X014260Y014946D02*
X014260Y014946D01*
X014260Y015792D01*
X014260Y015792D01*
X014260Y014946D01*
X014260Y015280D02*
X014260Y015280D01*
X014260Y015614D02*
X014260Y015614D01*
X014752Y014946D02*
X014752Y014946D01*
X014752Y015792D01*
X014752Y015792D01*
X014752Y014946D01*
X014752Y015280D02*
X014752Y015280D01*
X014752Y015614D02*
X014752Y015614D01*
X015244Y014946D02*
X015244Y014946D01*
X015244Y015792D01*
X015244Y015792D01*
X015244Y014946D01*
X015244Y015280D02*
X015244Y015280D01*
X015244Y015614D02*
X015244Y015614D01*
X015736Y014946D02*
X015736Y014946D01*
X015736Y015792D01*
X015736Y015792D01*
X015736Y014946D01*
X015736Y015280D02*
X015736Y015280D01*
X015736Y015614D02*
X015736Y015614D01*
X016228Y014946D02*
X016228Y014946D01*
X016228Y015792D01*
X016228Y015792D01*
X016228Y014946D01*
X016228Y015280D02*
X016228Y015280D01*
X016228Y015614D02*
X016228Y015614D01*
X016720Y014946D02*
X016720Y014946D01*
X016720Y015792D01*
X016720Y015792D01*
X016720Y014946D01*
X016720Y015280D02*
X016720Y015280D01*
X016720Y015614D02*
X016720Y015614D01*
X014752Y010202D02*
X014752Y010202D01*
X014752Y011048D01*
X014752Y011048D01*
X014752Y010202D01*
X014752Y010536D02*
X014752Y010536D01*
X014752Y010870D02*
X014752Y010870D01*
X014260Y010202D02*
X014260Y010202D01*
X014260Y011048D01*
X014260Y011048D01*
X014260Y010202D01*
X014260Y010536D02*
X014260Y010536D01*
X014260Y010870D02*
X014260Y010870D01*
X013768Y010202D02*
X013768Y010202D01*
X013768Y011048D01*
X013768Y011048D01*
X013768Y010202D01*
X013768Y010536D02*
X013768Y010536D01*
X013768Y010870D02*
X013768Y010870D01*
X013276Y010202D02*
X013276Y010202D01*
X013276Y011048D01*
X013276Y011048D01*
X013276Y010202D01*
X013276Y010536D02*
X013276Y010536D01*
X013276Y010870D02*
X013276Y010870D01*
X012783Y010202D02*
X012783Y010202D01*
X012783Y011048D01*
X012783Y011048D01*
X012783Y010202D01*
X012783Y010536D02*
X012783Y010536D01*
X012783Y010870D02*
X012783Y010870D01*
X012291Y010202D02*
X012291Y010202D01*
X012291Y011048D01*
X012291Y011048D01*
X012291Y010202D01*
X012291Y010536D02*
X012291Y010536D01*
X012291Y010870D02*
X012291Y010870D01*
X011799Y010202D02*
X011799Y010202D01*
X011799Y011048D01*
X011799Y011048D01*
X011799Y010202D01*
X011799Y010536D02*
X011799Y010536D01*
X011799Y010870D02*
X011799Y010870D01*
X011307Y010202D02*
X011307Y010202D01*
X011307Y011048D01*
X011307Y011048D01*
X011307Y010202D01*
X011307Y010536D02*
X011307Y010536D01*
X011307Y010870D02*
X011307Y010870D01*
X010815Y010202D02*
X010815Y010202D01*
X010815Y011048D01*
X010815Y011048D01*
X010815Y010202D01*
X010815Y010536D02*
X010815Y010536D01*
X010815Y010870D02*
X010815Y010870D01*
D21*
X010595Y018106D03*
X010595Y019106D03*
X011595Y019106D03*
X011595Y018106D03*
X012595Y018106D03*
X012595Y019106D03*
X013595Y019106D03*
X013595Y018106D03*
X014595Y018106D03*
X014595Y019106D03*
X014102Y002660D03*
X013102Y002660D03*
X013102Y001660D03*
X014102Y001660D03*
X015102Y001660D03*
X015102Y002660D03*
X012000Y001660D03*
X011000Y001660D03*
X010000Y001660D03*
D22*
X008236Y018066D03*
X007921Y018066D03*
X007606Y018066D03*
X007291Y018066D03*
X006976Y018066D03*
D23*
X006169Y018715D03*
X009043Y018715D03*
D24*
X009535Y018892D03*
X005677Y018892D03*
D25*
X006543Y018085D03*
X008669Y018085D03*
D26*
X009847Y017110D03*
X009847Y016510D03*
D27*
X006466Y002199D03*
X005466Y002199D03*
X004466Y002199D03*
D28*
X004460Y010810D03*
X004460Y011810D03*
D29*
X004697Y012982D03*
X004953Y012982D03*
X005209Y012982D03*
X005465Y012982D03*
X005721Y012982D03*
X005977Y012982D03*
X006233Y012982D03*
X006489Y012982D03*
X006744Y012982D03*
X007000Y012982D03*
X007256Y012982D03*
X007512Y012982D03*
X007768Y012982D03*
X008024Y012982D03*
X008024Y015861D03*
X007768Y015861D03*
X007512Y015861D03*
X007256Y015861D03*
X007000Y015861D03*
X006744Y015861D03*
X006489Y015861D03*
X006233Y015861D03*
X005977Y015861D03*
X005721Y015861D03*
X005465Y015861D03*
X005209Y015861D03*
X004953Y015861D03*
X004697Y015861D03*
D30*
X004457Y015546D02*
X004457Y016255D01*
X004063Y016255D02*
X004063Y015546D01*
X004417Y015034D01*
X005953Y015034D01*
X006228Y015467D01*
X006228Y015861D01*
X005977Y015861D02*
X005977Y015531D01*
X005835Y015310D01*
X004614Y015310D01*
X004457Y015546D01*
X008150Y009291D02*
X010165Y009291D01*
X010790Y009291D01*
X010835Y009247D01*
X011937Y008144D01*
X011937Y006688D01*
X012528Y006097D01*
X012764Y006097D01*
X014063Y006097D01*
X014063Y006058D02*
X014082Y006042D01*
X014102Y006018D02*
X014102Y005310D01*
X015638Y005310D01*
X015638Y002199D01*
X015126Y001688D01*
X014535Y002054D02*
X014102Y001660D01*
X014535Y002054D02*
X014535Y002869D01*
X013531Y003912D01*
X011346Y003912D01*
X011051Y003912D01*
X010913Y004050D01*
X010913Y004837D01*
X010795Y004955D01*
X011346Y004660D02*
X012087Y004660D01*
X012118Y004629D01*
X013236Y003617D02*
X010835Y003617D01*
X010835Y003302D02*
X012842Y003302D01*
X013236Y003617D02*
X013551Y003302D01*
X013551Y002109D01*
X013102Y001660D01*
X012000Y001660D02*
X011224Y002436D01*
X009457Y002436D01*
X008765Y003088D01*
X008765Y004778D01*
X009063Y004761D02*
X009079Y004778D01*
X009063Y004761D02*
X009063Y003814D01*
X009575Y003302D01*
X010165Y003302D01*
X010165Y003617D02*
X009693Y003617D01*
X009394Y003915D01*
X009394Y004778D01*
X009982Y005139D02*
X009982Y005366D01*
X009982Y005139D02*
X010165Y004955D01*
X009982Y006310D02*
X010359Y006310D01*
X011307Y006904D01*
X012764Y007652D02*
X012764Y008479D01*
X012783Y009207D02*
X013079Y009207D01*
X013768Y009896D01*
X013768Y010625D01*
X014260Y010625D02*
X014260Y009207D01*
X014260Y009050D02*
X014102Y008892D01*
X014082Y008877D02*
X014299Y009050D01*
X016622Y009050D01*
X016622Y008892D01*
X016642Y008877D01*
X016622Y006018D02*
X015913Y005310D01*
X015874Y005310D02*
X015638Y005310D01*
X011779Y009444D02*
X011386Y009050D01*
X011307Y009365D02*
X011307Y010625D01*
X011779Y010625D02*
X011779Y009444D01*
X010357Y009291D02*
X010165Y009291D01*
X008150Y009291D02*
X008135Y009276D01*
X008135Y008158D01*
X007528Y005585D02*
X007190Y005247D01*
X007190Y004778D01*
X007505Y004778D02*
X007505Y005208D01*
X007567Y005270D01*
X007820Y004778D02*
X007820Y004342D01*
X007764Y004286D01*
X008118Y003814D02*
X008118Y002711D01*
X009169Y001660D01*
X010000Y001660D01*
X010520Y002121D02*
X009299Y002121D01*
X008433Y002947D01*
X008433Y004761D01*
X010520Y002121D02*
X010980Y001660D01*
X014260Y010664D02*
X014260Y012947D01*
X015008Y013696D01*
X016228Y013696D01*
X017173Y014640D01*
X017173Y017081D01*
X016622Y017633D01*
X016110Y017633D01*
X016110Y018223D01*
X014772Y019562D01*
X014732Y016136D02*
X014732Y015979D01*
X014732Y015388D01*
X015244Y015388D02*
X015244Y015940D01*
X015244Y016136D01*
D31*
X015244Y015388D02*
X015244Y015369D01*
X014752Y015369D02*
X014732Y015388D01*
X014299Y016924D02*
X014063Y017160D01*
X014063Y018638D01*
X013595Y019106D01*
X013595Y018106D02*
X013630Y018105D01*
X013748Y018105D01*
X013748Y016924D01*
X011622Y019129D02*
X011595Y019106D01*
X011622Y019129D02*
X011622Y019562D01*
X014772Y019562D01*
X016110Y017633D02*
X016130Y017633D01*
X014260Y010664D02*
X014260Y010625D01*
X014260Y009207D02*
X014260Y009168D01*
X014260Y009050D01*
X014102Y008892D02*
X014082Y008877D01*
X012764Y008538D02*
X012764Y008479D01*
X012764Y006136D02*
X012764Y006097D01*
X012764Y006117D02*
X012764Y006136D01*
X014063Y006097D02*
X014063Y006058D01*
X014082Y006042D02*
X014102Y006018D01*
X015874Y005310D02*
X015913Y005310D01*
X016622Y006018D02*
X016642Y006042D01*
X015126Y001688D02*
X015102Y001660D01*
X008157Y009207D02*
X008150Y009291D01*
X007803Y008184D02*
X007820Y008158D01*
X006583Y007633D02*
X006583Y007593D01*
X006602Y007570D01*
X006583Y007633D02*
X005756Y007633D01*
X004732Y007633D02*
X004417Y007633D01*
X004393Y007670D01*
X003645Y007670D02*
X003630Y007672D01*
X002606Y005861D02*
X002548Y005893D01*
X002567Y005861D01*
X003827Y005861D02*
X003847Y005818D01*
X003866Y005822D01*
X003847Y003897D02*
X003866Y003892D01*
X003847Y003897D02*
X003827Y003853D01*
X003827Y003814D01*
X002606Y003814D02*
X002548Y003826D01*
X002567Y003814D01*
X006583Y005349D02*
X006602Y005366D01*
X006602Y005681D02*
X006583Y005703D01*
X011779Y010625D02*
X011799Y010625D01*
X009847Y017110D02*
X009850Y017121D01*
X009929Y017199D01*
X009929Y017239D01*
X010047Y017278D01*
X006233Y015861D02*
X006228Y015861D01*
X005461Y013731D02*
X004953Y013251D01*
X004953Y012975D01*
X004953Y012982D01*
X005721Y012982D02*
X005756Y012947D01*
X004063Y017042D02*
X004063Y017396D01*
X004053Y017377D01*
X004053Y018125D02*
X004063Y018184D01*
X004063Y018656D02*
X004055Y018752D01*
D32*
X004850Y012436D03*
X007803Y008617D03*
X005756Y007633D03*
X004732Y007633D03*
X007528Y005585D03*
X007567Y005270D03*
X007764Y004286D03*
X008118Y003814D03*
X007803Y002869D03*
X009535Y002869D03*
X010165Y003302D03*
X010165Y003617D03*
X010835Y003617D03*
X010835Y003302D03*
X010795Y004955D03*
X010165Y004955D03*
X012842Y003302D03*
X011386Y009050D03*
X011307Y009365D03*
D33*
X009791Y011117D02*
X008590Y011117D01*
X008590Y010782D01*
X008689Y011766D02*
X008590Y011865D01*
X008315Y012140D01*
X007409Y012140D01*
X007409Y011392D02*
X007409Y010841D01*
X008689Y011766D02*
X009949Y011766D01*
X009949Y011274D02*
X009791Y011117D01*
X008748Y015231D02*
X007685Y015231D01*
X008748Y015231D02*
X008945Y015546D01*
X008787Y016432D02*
X008842Y016594D01*
X008827Y016806D01*
X009847Y016510D02*
X010854Y016510D01*
X011465Y017121D01*
X012370Y017121D01*
X012594Y017121D01*
X012787Y016928D01*
X012787Y016490D01*
X012783Y016486D01*
X012803Y016466D01*
X012803Y015388D01*
X012291Y015369D02*
X012291Y015991D01*
X012031Y016251D01*
X012031Y016482D01*
X012035Y016486D01*
X012842Y016530D02*
X015756Y016530D01*
X015382Y016904D01*
X015382Y017633D01*
X015068Y017633D01*
X014595Y018106D01*
X015756Y016530D02*
X015972Y016530D01*
X015736Y016432D02*
X015716Y016451D01*
X015736Y016432D02*
X015736Y015369D01*
X016228Y015369D01*
X014575Y011570D02*
X014752Y011392D01*
X014752Y010625D01*
X006937Y017262D02*
X006937Y017853D01*
X006744Y016652D02*
X006744Y016341D01*
X006579Y016652D02*
X003709Y016652D01*
X003370Y016652D01*
X003118Y016904D01*
X003379Y016425D02*
X003379Y015977D01*
X003382Y015979D02*
X003382Y016014D01*
X003382Y015979D02*
X003382Y014562D01*
X003379Y016425D02*
X003606Y016652D01*
X003709Y016652D01*
X002173Y016570D02*
X002134Y016904D01*
X001800Y005893D02*
X001800Y005132D01*
X001802Y005104D01*
X001807Y005076D01*
X001816Y005049D01*
X001829Y005024D01*
X001845Y005001D01*
X001863Y004979D01*
X001885Y004961D01*
X001908Y004945D01*
X001933Y004932D01*
X001960Y004923D01*
X001988Y004918D01*
X002016Y004916D01*
X001800Y005893D02*
X001800Y003826D01*
D34*
X003382Y014562D02*
X003301Y014606D01*
D35*
X003118Y017652D02*
X002134Y017652D01*
X004839Y019500D02*
X005739Y019500D01*
X005795Y019247D01*
X005795Y019010D01*
X005677Y018892D01*
X006579Y016652D02*
X006661Y016652D01*
X006744Y016341D02*
X006740Y016337D01*
X008236Y018066D02*
X008236Y018105D01*
X008236Y018499D01*
X008433Y018696D01*
X008453Y018715D01*
X009043Y018715D01*
X010047Y018558D02*
X010047Y017278D01*
X010047Y018558D02*
X010595Y019106D01*
X007803Y010113D02*
X007783Y010093D01*
X007409Y010093D01*
X012294Y006922D02*
X012331Y006922D01*
X012746Y006922D01*
X012764Y006904D01*
X012866Y004629D02*
X013118Y004640D01*
X012892Y002870D02*
X013102Y002660D01*
X012892Y002870D02*
X010493Y002870D01*
X012783Y009207D02*
X012764Y009227D01*
D36*
X012764Y009247D01*
X011386Y007672D02*
X011307Y007652D01*
X011307Y006412D02*
X011307Y006117D01*
X011386Y005388D02*
X011307Y005369D01*
X011386Y005388D02*
X012764Y005388D01*
X012764Y005369D01*
X012331Y006922D02*
X012331Y006924D01*
X010480Y003080D02*
X010493Y002870D01*
X009745Y002870D02*
X009537Y002870D01*
X009535Y002869D01*
X008135Y004263D02*
X006465Y002593D01*
X004861Y002593D01*
X004466Y002199D01*
X007151Y002175D02*
X007151Y002217D01*
X007803Y002869D01*
X008135Y004263D02*
X008135Y004778D01*
X008433Y004761D02*
X008450Y004778D01*
X006622Y006924D02*
X006602Y006940D01*
X007505Y008158D02*
X007488Y008175D01*
X007488Y008459D01*
X006228Y009719D01*
X006228Y011727D01*
X005721Y012235D01*
X005721Y012982D01*
X005465Y012982D02*
X005465Y012657D01*
X005441Y012633D01*
X004693Y011885D01*
X004460Y011810D01*
X004850Y012436D02*
X004697Y012589D01*
X004697Y012982D01*
X005283Y012003D02*
X005874Y011412D01*
X005874Y009601D01*
X006858Y008617D01*
X007402Y009291D02*
X006622Y010070D01*
X006622Y012436D01*
X007685Y015231D02*
X008374Y015349D01*
X008787Y015684D01*
X008024Y015861D02*
X008024Y017294D01*
X007606Y017711D01*
X007606Y018066D01*
X007291Y018066D02*
X007291Y017593D01*
X007768Y017116D01*
X007768Y015861D01*
X007512Y015861D02*
X007512Y015522D01*
X007685Y015231D01*
X007256Y015393D02*
X007213Y015349D01*
X007256Y015393D02*
X007256Y015861D01*
X006744Y015861D02*
X006740Y015940D01*
X006740Y016337D01*
X006744Y016341D02*
X006701Y016451D01*
X006579Y016652D01*
X006740Y015940D02*
X006740Y015861D01*
X006489Y015861D02*
X006489Y015412D01*
X006465Y015388D01*
X006504Y015361D01*
X004535Y017042D02*
X004840Y017347D01*
X004840Y017377D01*
X004840Y018125D02*
X004839Y018166D01*
X004839Y018752D01*
X004063Y018656D02*
X004063Y018174D01*
X004053Y018125D01*
X003394Y015979D02*
X003382Y015979D01*
X003379Y015977D02*
X003394Y015979D01*
X002646Y015979D02*
X002501Y015979D01*
X002631Y015977D02*
X002646Y015979D01*
X006071Y018105D02*
X006169Y018715D01*
X006071Y018105D02*
X006543Y018105D01*
X006543Y018085D01*
X006976Y018066D02*
X006937Y017853D01*
X008236Y018105D02*
X008354Y018105D01*
X008669Y018105D01*
X008669Y018085D01*
X009847Y016510D02*
X009732Y016373D01*
X012035Y016486D02*
X012055Y016451D01*
X012094Y016412D01*
X012783Y016486D02*
X012842Y016609D01*
X012842Y016530D02*
X012783Y016486D01*
X012803Y016451D01*
X012803Y015388D02*
X012783Y015369D01*
X012291Y015369D02*
X012291Y015270D01*
X012291Y014601D01*
X015716Y016451D02*
X015716Y016530D01*
X015756Y016530D01*
X015953Y016530D01*
X015972Y016530D01*
X016701Y016530D02*
X016720Y016530D01*
X016701Y016451D01*
X016701Y015388D01*
X016720Y015369D01*
X016228Y015388D02*
X016228Y015369D01*
X016701Y016530D02*
X016701Y017003D01*
X007803Y008617D02*
X007803Y008184D01*
X005244Y007121D02*
X005244Y007101D01*
X010980Y001660D02*
X011000Y001660D01*
D37*
X006233Y012982D02*
X006228Y012987D01*
X006228Y013459D01*
X005465Y015861D02*
X005362Y015861D01*
X005362Y016255D01*
X005362Y015861D02*
X005209Y015861D01*
X006858Y017199D02*
X006937Y017262D01*
X006169Y018715D02*
X006150Y018735D01*
X005795Y018735D01*
X004839Y019500D02*
X004732Y019522D01*
X004063Y019522D01*
X004055Y019500D01*
X009063Y018932D02*
X009063Y018853D01*
X009043Y018715D01*
X009063Y018932D02*
X009535Y018892D01*
D38*
X006858Y017199D02*
X006858Y016932D01*
X006579Y016652D01*
X008590Y015192D02*
X008590Y011865D01*
X008591Y015192D02*
X008593Y015229D01*
X008599Y015266D01*
X008608Y015301D01*
X008622Y015336D01*
X008638Y015369D01*
X008659Y015400D01*
X008682Y015429D01*
X008708Y015455D01*
X008737Y015478D01*
X008768Y015499D01*
X008801Y015515D01*
X008836Y015529D01*
X008871Y015538D01*
X008908Y015544D01*
X008945Y015546D01*
X004460Y011810D02*
X005244Y011026D01*
X005244Y007101D01*
X004460Y010810D02*
X003535Y010810D01*
X002528Y011818D01*
X002528Y012818D02*
X003453Y012818D01*
X003516Y012755D01*
X003301Y012970D01*
X003301Y014606D01*
X002501Y014606D02*
X002501Y015979D01*
X002501Y016203D01*
X002173Y016570D01*
X003516Y012755D02*
X004460Y011810D01*
D39*
X005244Y007101D02*
X005815Y007101D01*
X006268Y006648D01*
X006579Y006648D01*
X006602Y006625D01*
X007078Y006625D01*
X007331Y006373D01*
X007331Y006207D01*
X007857Y005681D01*
X009982Y005681D01*
X010346Y005681D01*
X010480Y005546D01*
X010480Y005310D01*
X010539Y005369D01*
X011307Y005369D01*
X010480Y005310D02*
X010480Y003577D01*
X010480Y003080D01*
X007567Y001412D02*
X007552Y001427D01*
X007151Y001427D01*
X007151Y002175D02*
X007128Y002199D01*
X006466Y002199D01*
X005126Y003892D02*
X003866Y003892D01*
X003827Y003814D02*
X002606Y003814D01*
X002606Y005861D02*
X003827Y005861D01*
X003866Y005822D02*
X003866Y005703D01*
X006583Y005703D01*
X006607Y005991D02*
X007114Y005991D01*
X007331Y006207D01*
X007055Y006924D02*
X006622Y006924D01*
X007055Y006924D02*
X007134Y007003D01*
X006602Y006310D02*
X006009Y006310D01*
X005913Y006215D01*
X005287Y006310D02*
X006602Y006310D01*
X006602Y005996D02*
X006607Y005991D01*
X006583Y005349D02*
X005126Y003892D01*
X005287Y006310D02*
X005244Y006353D01*
X009457Y006648D02*
X009479Y006625D01*
X009982Y006625D01*
X011307Y007652D02*
X011307Y007947D01*
D40*
X011307Y007947D03*
X012331Y006924D03*
X011307Y006412D03*
X009457Y006648D03*
X007134Y007003D03*
X005913Y006215D03*
X006858Y008617D03*
X007803Y010113D03*
X008590Y010782D03*
X006622Y012436D03*
X006228Y013459D03*
X005461Y013731D03*
X006504Y015361D03*
X007213Y015349D03*
X008827Y016806D03*
X008433Y018696D03*
X005795Y017751D03*
X004535Y017042D03*
X004063Y017042D03*
X004063Y016255D03*
X004457Y016255D03*
X005362Y016255D03*
X002173Y016570D03*
X005283Y012003D03*
X002016Y004916D03*
X007567Y001412D03*
X013118Y004640D03*
X014575Y011570D03*
X012291Y014601D03*
X013748Y016924D03*
X014299Y016924D03*
X014732Y016136D03*
X015244Y016136D03*
X016701Y017003D03*
D41*
X009847Y016510D02*
X009020Y015684D01*
X008787Y015684D01*
X005795Y018971D02*
X005795Y019010D01*
X004460Y010810D02*
X004403Y010631D01*
X004403Y009687D01*
X004403Y008939D02*
X002692Y008939D01*
X002449Y008696D01*
X002449Y007696D02*
X003110Y007670D01*
X003645Y007670D01*
D42*
X005795Y017751D02*
X005795Y018735D01*
X005795Y018971D01*
M02*
