%
M48
M72
T01C0.0120
T02C0.0157
T03C0.0236
T04C0.0240
T05C0.0315
T06C0.0320
T07C0.0400
T08C0.1300
%
T01
X4732Y7633
X5756Y7633
X7528Y5585
X7567Y5270
X7764Y4286
X8118Y3814
X7803Y2869
X9535Y2869
X10165Y3302
X10165Y3617
X10835Y3617
X10835Y3302
X10795Y4955
X10165Y4955
X12842Y3302
X11386Y9050
X11307Y9365
X7803Y8617
X4850Y12436
T02
X5283Y12003
X6228Y13459
X5461Y13731
X6622Y12436
X8590Y10782
X7803Y10113
X6858Y8617
X7134Y7003
X5913Y6215
X9457Y6648
X11307Y6412
X12331Y6924
X11307Y7947
X13118Y4640
X7567Y1412
X2016Y4916
X6504Y15361
X7213Y15349
X8827Y16806
X8433Y18696
X5795Y17751
X4535Y17042
X4063Y17042
X4063Y16255
X4457Y16255
X5362Y16255
X2173Y16570
X12291Y14601
X13748Y16924
X14299Y16924
X14732Y16136
X15244Y16136
X16701Y17003
X14575Y11570
T03
X6466Y2199
X5466Y2199
X4466Y2199
T04
X3847Y3897
X3847Y5818
T05
X4460Y10810
X4460Y11810
T06
X2449Y9696
X2449Y8696
X2449Y7696
X2501Y14606
X3301Y14606
T07
X2528Y12818
X2528Y11818
X10595Y18106
X10595Y19106
X11595Y19106
X11595Y18106
X12595Y18106
X12595Y19106
X13595Y19106
X13595Y18106
X14595Y18106
X14595Y19106
X14082Y8877
X14082Y7097
X14082Y6042
X14082Y4262
X14102Y2660
X13102Y2660
X13102Y1660
X14102Y1660
X15102Y1660
X15102Y2660
X16642Y4262
X16642Y6042
X16642Y7097
X16642Y8877
X12000Y1660
X11000Y1660
X10000Y1660
T08
X2291Y1924
X16858Y1924
X16858Y19247
X2291Y19247
M30
