G75*
G70*
%OFA0B0*%
%FSLAX24Y24*%
%IPPOS*%
%LPD*%
%AMOC8*
5,1,8,0,0,1.08239X$1,22.5*
%
%ADD10C,0.0000*%
D10*
X001110Y000743D02*
X001110Y020428D01*
X018039Y020428D01*
X018039Y000743D01*
X001110Y000743D01*
X001641Y001924D02*
X001643Y001974D01*
X001649Y002024D01*
X001659Y002074D01*
X001672Y002122D01*
X001689Y002170D01*
X001710Y002216D01*
X001734Y002260D01*
X001762Y002302D01*
X001793Y002342D01*
X001827Y002379D01*
X001864Y002414D01*
X001903Y002445D01*
X001944Y002474D01*
X001988Y002499D01*
X002034Y002521D01*
X002081Y002539D01*
X002129Y002553D01*
X002178Y002564D01*
X002228Y002571D01*
X002278Y002574D01*
X002329Y002573D01*
X002379Y002568D01*
X002429Y002559D01*
X002477Y002547D01*
X002525Y002530D01*
X002571Y002510D01*
X002616Y002487D01*
X002659Y002460D01*
X002699Y002430D01*
X002737Y002397D01*
X002772Y002361D01*
X002805Y002322D01*
X002834Y002281D01*
X002860Y002238D01*
X002883Y002193D01*
X002902Y002146D01*
X002917Y002098D01*
X002929Y002049D01*
X002937Y001999D01*
X002941Y001949D01*
X002941Y001899D01*
X002937Y001849D01*
X002929Y001799D01*
X002917Y001750D01*
X002902Y001702D01*
X002883Y001655D01*
X002860Y001610D01*
X002834Y001567D01*
X002805Y001526D01*
X002772Y001487D01*
X002737Y001451D01*
X002699Y001418D01*
X002659Y001388D01*
X002616Y001361D01*
X002571Y001338D01*
X002525Y001318D01*
X002477Y001301D01*
X002429Y001289D01*
X002379Y001280D01*
X002329Y001275D01*
X002278Y001274D01*
X002228Y001277D01*
X002178Y001284D01*
X002129Y001295D01*
X002081Y001309D01*
X002034Y001327D01*
X001988Y001349D01*
X001944Y001374D01*
X001903Y001403D01*
X001864Y001434D01*
X001827Y001469D01*
X001793Y001506D01*
X001762Y001546D01*
X001734Y001588D01*
X001710Y001632D01*
X001689Y001678D01*
X001672Y001726D01*
X001659Y001774D01*
X001649Y001824D01*
X001643Y001874D01*
X001641Y001924D01*
X001641Y019247D02*
X001643Y019297D01*
X001649Y019347D01*
X001659Y019397D01*
X001672Y019445D01*
X001689Y019493D01*
X001710Y019539D01*
X001734Y019583D01*
X001762Y019625D01*
X001793Y019665D01*
X001827Y019702D01*
X001864Y019737D01*
X001903Y019768D01*
X001944Y019797D01*
X001988Y019822D01*
X002034Y019844D01*
X002081Y019862D01*
X002129Y019876D01*
X002178Y019887D01*
X002228Y019894D01*
X002278Y019897D01*
X002329Y019896D01*
X002379Y019891D01*
X002429Y019882D01*
X002477Y019870D01*
X002525Y019853D01*
X002571Y019833D01*
X002616Y019810D01*
X002659Y019783D01*
X002699Y019753D01*
X002737Y019720D01*
X002772Y019684D01*
X002805Y019645D01*
X002834Y019604D01*
X002860Y019561D01*
X002883Y019516D01*
X002902Y019469D01*
X002917Y019421D01*
X002929Y019372D01*
X002937Y019322D01*
X002941Y019272D01*
X002941Y019222D01*
X002937Y019172D01*
X002929Y019122D01*
X002917Y019073D01*
X002902Y019025D01*
X002883Y018978D01*
X002860Y018933D01*
X002834Y018890D01*
X002805Y018849D01*
X002772Y018810D01*
X002737Y018774D01*
X002699Y018741D01*
X002659Y018711D01*
X002616Y018684D01*
X002571Y018661D01*
X002525Y018641D01*
X002477Y018624D01*
X002429Y018612D01*
X002379Y018603D01*
X002329Y018598D01*
X002278Y018597D01*
X002228Y018600D01*
X002178Y018607D01*
X002129Y018618D01*
X002081Y018632D01*
X002034Y018650D01*
X001988Y018672D01*
X001944Y018697D01*
X001903Y018726D01*
X001864Y018757D01*
X001827Y018792D01*
X001793Y018829D01*
X001762Y018869D01*
X001734Y018911D01*
X001710Y018955D01*
X001689Y019001D01*
X001672Y019049D01*
X001659Y019097D01*
X001649Y019147D01*
X001643Y019197D01*
X001641Y019247D01*
X016208Y019247D02*
X016210Y019297D01*
X016216Y019347D01*
X016226Y019397D01*
X016239Y019445D01*
X016256Y019493D01*
X016277Y019539D01*
X016301Y019583D01*
X016329Y019625D01*
X016360Y019665D01*
X016394Y019702D01*
X016431Y019737D01*
X016470Y019768D01*
X016511Y019797D01*
X016555Y019822D01*
X016601Y019844D01*
X016648Y019862D01*
X016696Y019876D01*
X016745Y019887D01*
X016795Y019894D01*
X016845Y019897D01*
X016896Y019896D01*
X016946Y019891D01*
X016996Y019882D01*
X017044Y019870D01*
X017092Y019853D01*
X017138Y019833D01*
X017183Y019810D01*
X017226Y019783D01*
X017266Y019753D01*
X017304Y019720D01*
X017339Y019684D01*
X017372Y019645D01*
X017401Y019604D01*
X017427Y019561D01*
X017450Y019516D01*
X017469Y019469D01*
X017484Y019421D01*
X017496Y019372D01*
X017504Y019322D01*
X017508Y019272D01*
X017508Y019222D01*
X017504Y019172D01*
X017496Y019122D01*
X017484Y019073D01*
X017469Y019025D01*
X017450Y018978D01*
X017427Y018933D01*
X017401Y018890D01*
X017372Y018849D01*
X017339Y018810D01*
X017304Y018774D01*
X017266Y018741D01*
X017226Y018711D01*
X017183Y018684D01*
X017138Y018661D01*
X017092Y018641D01*
X017044Y018624D01*
X016996Y018612D01*
X016946Y018603D01*
X016896Y018598D01*
X016845Y018597D01*
X016795Y018600D01*
X016745Y018607D01*
X016696Y018618D01*
X016648Y018632D01*
X016601Y018650D01*
X016555Y018672D01*
X016511Y018697D01*
X016470Y018726D01*
X016431Y018757D01*
X016394Y018792D01*
X016360Y018829D01*
X016329Y018869D01*
X016301Y018911D01*
X016277Y018955D01*
X016256Y019001D01*
X016239Y019049D01*
X016226Y019097D01*
X016216Y019147D01*
X016210Y019197D01*
X016208Y019247D01*
X016208Y001924D02*
X016210Y001974D01*
X016216Y002024D01*
X016226Y002074D01*
X016239Y002122D01*
X016256Y002170D01*
X016277Y002216D01*
X016301Y002260D01*
X016329Y002302D01*
X016360Y002342D01*
X016394Y002379D01*
X016431Y002414D01*
X016470Y002445D01*
X016511Y002474D01*
X016555Y002499D01*
X016601Y002521D01*
X016648Y002539D01*
X016696Y002553D01*
X016745Y002564D01*
X016795Y002571D01*
X016845Y002574D01*
X016896Y002573D01*
X016946Y002568D01*
X016996Y002559D01*
X017044Y002547D01*
X017092Y002530D01*
X017138Y002510D01*
X017183Y002487D01*
X017226Y002460D01*
X017266Y002430D01*
X017304Y002397D01*
X017339Y002361D01*
X017372Y002322D01*
X017401Y002281D01*
X017427Y002238D01*
X017450Y002193D01*
X017469Y002146D01*
X017484Y002098D01*
X017496Y002049D01*
X017504Y001999D01*
X017508Y001949D01*
X017508Y001899D01*
X017504Y001849D01*
X017496Y001799D01*
X017484Y001750D01*
X017469Y001702D01*
X017450Y001655D01*
X017427Y001610D01*
X017401Y001567D01*
X017372Y001526D01*
X017339Y001487D01*
X017304Y001451D01*
X017266Y001418D01*
X017226Y001388D01*
X017183Y001361D01*
X017138Y001338D01*
X017092Y001318D01*
X017044Y001301D01*
X016996Y001289D01*
X016946Y001280D01*
X016896Y001275D01*
X016845Y001274D01*
X016795Y001277D01*
X016745Y001284D01*
X016696Y001295D01*
X016648Y001309D01*
X016601Y001327D01*
X016555Y001349D01*
X016511Y001374D01*
X016470Y001403D01*
X016431Y001434D01*
X016394Y001469D01*
X016360Y001506D01*
X016329Y001546D01*
X016301Y001588D01*
X016277Y001632D01*
X016256Y001678D01*
X016239Y001726D01*
X016226Y001774D01*
X016216Y001824D01*
X016210Y001874D01*
X016208Y001924D01*
M02*
