G75*
G70*
%OFA0B0*%
%FSLAX24Y24*%
%IPPOS*%
%LPD*%
%AMOC8*
5,1,8,0,0,1.08239X$1,22.5*
%
%ADD10C,0.0000*%
%ADD11C,0.0600*%
%ADD12C,0.0440*%
%ADD13OC8,0.0520*%
%ADD14C,0.0520*%
%ADD15C,0.0520*%
%ADD16OC8,0.0600*%
%ADD17C,0.0436*%
%ADD18C,0.0515*%
%ADD19C,0.0240*%
%ADD20C,0.0120*%
%ADD21C,0.0500*%
%ADD22C,0.0200*%
%ADD23C,0.0277*%
%ADD24C,0.0160*%
%ADD25C,0.0400*%
%ADD26C,0.0100*%
D10*
X001110Y000743D02*
X001110Y020428D01*
X018039Y020428D01*
X018039Y000743D01*
X001110Y000743D01*
X001641Y001924D02*
X001643Y001974D01*
X001649Y002024D01*
X001659Y002074D01*
X001672Y002122D01*
X001689Y002170D01*
X001710Y002216D01*
X001734Y002260D01*
X001762Y002302D01*
X001793Y002342D01*
X001827Y002379D01*
X001864Y002414D01*
X001903Y002445D01*
X001944Y002474D01*
X001988Y002499D01*
X002034Y002521D01*
X002081Y002539D01*
X002129Y002553D01*
X002178Y002564D01*
X002228Y002571D01*
X002278Y002574D01*
X002329Y002573D01*
X002379Y002568D01*
X002429Y002559D01*
X002477Y002547D01*
X002525Y002530D01*
X002571Y002510D01*
X002616Y002487D01*
X002659Y002460D01*
X002699Y002430D01*
X002737Y002397D01*
X002772Y002361D01*
X002805Y002322D01*
X002834Y002281D01*
X002860Y002238D01*
X002883Y002193D01*
X002902Y002146D01*
X002917Y002098D01*
X002929Y002049D01*
X002937Y001999D01*
X002941Y001949D01*
X002941Y001899D01*
X002937Y001849D01*
X002929Y001799D01*
X002917Y001750D01*
X002902Y001702D01*
X002883Y001655D01*
X002860Y001610D01*
X002834Y001567D01*
X002805Y001526D01*
X002772Y001487D01*
X002737Y001451D01*
X002699Y001418D01*
X002659Y001388D01*
X002616Y001361D01*
X002571Y001338D01*
X002525Y001318D01*
X002477Y001301D01*
X002429Y001289D01*
X002379Y001280D01*
X002329Y001275D01*
X002278Y001274D01*
X002228Y001277D01*
X002178Y001284D01*
X002129Y001295D01*
X002081Y001309D01*
X002034Y001327D01*
X001988Y001349D01*
X001944Y001374D01*
X001903Y001403D01*
X001864Y001434D01*
X001827Y001469D01*
X001793Y001506D01*
X001762Y001546D01*
X001734Y001588D01*
X001710Y001632D01*
X001689Y001678D01*
X001672Y001726D01*
X001659Y001774D01*
X001649Y001824D01*
X001643Y001874D01*
X001641Y001924D01*
X001641Y019247D02*
X001643Y019297D01*
X001649Y019347D01*
X001659Y019397D01*
X001672Y019445D01*
X001689Y019493D01*
X001710Y019539D01*
X001734Y019583D01*
X001762Y019625D01*
X001793Y019665D01*
X001827Y019702D01*
X001864Y019737D01*
X001903Y019768D01*
X001944Y019797D01*
X001988Y019822D01*
X002034Y019844D01*
X002081Y019862D01*
X002129Y019876D01*
X002178Y019887D01*
X002228Y019894D01*
X002278Y019897D01*
X002329Y019896D01*
X002379Y019891D01*
X002429Y019882D01*
X002477Y019870D01*
X002525Y019853D01*
X002571Y019833D01*
X002616Y019810D01*
X002659Y019783D01*
X002699Y019753D01*
X002737Y019720D01*
X002772Y019684D01*
X002805Y019645D01*
X002834Y019604D01*
X002860Y019561D01*
X002883Y019516D01*
X002902Y019469D01*
X002917Y019421D01*
X002929Y019372D01*
X002937Y019322D01*
X002941Y019272D01*
X002941Y019222D01*
X002937Y019172D01*
X002929Y019122D01*
X002917Y019073D01*
X002902Y019025D01*
X002883Y018978D01*
X002860Y018933D01*
X002834Y018890D01*
X002805Y018849D01*
X002772Y018810D01*
X002737Y018774D01*
X002699Y018741D01*
X002659Y018711D01*
X002616Y018684D01*
X002571Y018661D01*
X002525Y018641D01*
X002477Y018624D01*
X002429Y018612D01*
X002379Y018603D01*
X002329Y018598D01*
X002278Y018597D01*
X002228Y018600D01*
X002178Y018607D01*
X002129Y018618D01*
X002081Y018632D01*
X002034Y018650D01*
X001988Y018672D01*
X001944Y018697D01*
X001903Y018726D01*
X001864Y018757D01*
X001827Y018792D01*
X001793Y018829D01*
X001762Y018869D01*
X001734Y018911D01*
X001710Y018955D01*
X001689Y019001D01*
X001672Y019049D01*
X001659Y019097D01*
X001649Y019147D01*
X001643Y019197D01*
X001641Y019247D01*
X016208Y019247D02*
X016210Y019297D01*
X016216Y019347D01*
X016226Y019397D01*
X016239Y019445D01*
X016256Y019493D01*
X016277Y019539D01*
X016301Y019583D01*
X016329Y019625D01*
X016360Y019665D01*
X016394Y019702D01*
X016431Y019737D01*
X016470Y019768D01*
X016511Y019797D01*
X016555Y019822D01*
X016601Y019844D01*
X016648Y019862D01*
X016696Y019876D01*
X016745Y019887D01*
X016795Y019894D01*
X016845Y019897D01*
X016896Y019896D01*
X016946Y019891D01*
X016996Y019882D01*
X017044Y019870D01*
X017092Y019853D01*
X017138Y019833D01*
X017183Y019810D01*
X017226Y019783D01*
X017266Y019753D01*
X017304Y019720D01*
X017339Y019684D01*
X017372Y019645D01*
X017401Y019604D01*
X017427Y019561D01*
X017450Y019516D01*
X017469Y019469D01*
X017484Y019421D01*
X017496Y019372D01*
X017504Y019322D01*
X017508Y019272D01*
X017508Y019222D01*
X017504Y019172D01*
X017496Y019122D01*
X017484Y019073D01*
X017469Y019025D01*
X017450Y018978D01*
X017427Y018933D01*
X017401Y018890D01*
X017372Y018849D01*
X017339Y018810D01*
X017304Y018774D01*
X017266Y018741D01*
X017226Y018711D01*
X017183Y018684D01*
X017138Y018661D01*
X017092Y018641D01*
X017044Y018624D01*
X016996Y018612D01*
X016946Y018603D01*
X016896Y018598D01*
X016845Y018597D01*
X016795Y018600D01*
X016745Y018607D01*
X016696Y018618D01*
X016648Y018632D01*
X016601Y018650D01*
X016555Y018672D01*
X016511Y018697D01*
X016470Y018726D01*
X016431Y018757D01*
X016394Y018792D01*
X016360Y018829D01*
X016329Y018869D01*
X016301Y018911D01*
X016277Y018955D01*
X016256Y019001D01*
X016239Y019049D01*
X016226Y019097D01*
X016216Y019147D01*
X016210Y019197D01*
X016208Y019247D01*
X016208Y001924D02*
X016210Y001974D01*
X016216Y002024D01*
X016226Y002074D01*
X016239Y002122D01*
X016256Y002170D01*
X016277Y002216D01*
X016301Y002260D01*
X016329Y002302D01*
X016360Y002342D01*
X016394Y002379D01*
X016431Y002414D01*
X016470Y002445D01*
X016511Y002474D01*
X016555Y002499D01*
X016601Y002521D01*
X016648Y002539D01*
X016696Y002553D01*
X016745Y002564D01*
X016795Y002571D01*
X016845Y002574D01*
X016896Y002573D01*
X016946Y002568D01*
X016996Y002559D01*
X017044Y002547D01*
X017092Y002530D01*
X017138Y002510D01*
X017183Y002487D01*
X017226Y002460D01*
X017266Y002430D01*
X017304Y002397D01*
X017339Y002361D01*
X017372Y002322D01*
X017401Y002281D01*
X017427Y002238D01*
X017450Y002193D01*
X017469Y002146D01*
X017484Y002098D01*
X017496Y002049D01*
X017504Y001999D01*
X017508Y001949D01*
X017508Y001899D01*
X017504Y001849D01*
X017496Y001799D01*
X017484Y001750D01*
X017469Y001702D01*
X017450Y001655D01*
X017427Y001610D01*
X017401Y001567D01*
X017372Y001526D01*
X017339Y001487D01*
X017304Y001451D01*
X017266Y001418D01*
X017226Y001388D01*
X017183Y001361D01*
X017138Y001338D01*
X017092Y001318D01*
X017044Y001301D01*
X016996Y001289D01*
X016946Y001280D01*
X016896Y001275D01*
X016845Y001274D01*
X016795Y001277D01*
X016745Y001284D01*
X016696Y001295D01*
X016648Y001309D01*
X016601Y001327D01*
X016555Y001349D01*
X016511Y001374D01*
X016470Y001403D01*
X016431Y001434D01*
X016394Y001469D01*
X016360Y001506D01*
X016329Y001546D01*
X016301Y001588D01*
X016277Y001632D01*
X016256Y001678D01*
X016239Y001726D01*
X016226Y001774D01*
X016216Y001824D01*
X016210Y001874D01*
X016208Y001924D01*
D11*
X016342Y004262D02*
X016942Y004262D01*
X016942Y006042D02*
X016342Y006042D01*
X016342Y007097D02*
X016942Y007097D01*
X016942Y008877D02*
X016342Y008877D01*
X014382Y008877D02*
X013782Y008877D01*
X013782Y007097D02*
X014382Y007097D01*
X014382Y006042D02*
X013782Y006042D01*
X013782Y004262D02*
X014382Y004262D01*
X002828Y011818D02*
X002228Y011818D01*
X002228Y012818D02*
X002828Y012818D01*
D12*
X003627Y005818D02*
X004067Y005818D01*
X004067Y003897D02*
X003627Y003897D01*
D13*
X002501Y014606D03*
D14*
X003301Y014606D03*
D15*
X002709Y009696D02*
X002189Y009696D01*
X002189Y008696D02*
X002709Y008696D01*
X002709Y007696D02*
X002189Y007696D01*
D16*
X010000Y001660D03*
X011000Y001660D03*
X012000Y001660D03*
X013102Y001660D03*
X013102Y002660D03*
X014102Y002660D03*
X014102Y001660D03*
X015102Y001660D03*
X015102Y002660D03*
X014595Y018106D03*
X014595Y019106D03*
X013595Y019106D03*
X013595Y018106D03*
X012595Y018106D03*
X012595Y019106D03*
X011595Y019106D03*
X011595Y018106D03*
X010595Y018106D03*
X010595Y019106D03*
D17*
X006466Y002199D03*
X005466Y002199D03*
X004466Y002199D03*
D18*
X004460Y010810D03*
X004460Y011810D03*
D19*
X004850Y012436D03*
X007803Y008617D03*
X005756Y007633D03*
X004732Y007633D03*
X007528Y005585D03*
X007567Y005270D03*
X007764Y004286D03*
X008118Y003814D03*
X007803Y002869D03*
X009535Y002869D03*
X010165Y003302D03*
X010165Y003617D03*
X010835Y003617D03*
X010835Y003302D03*
X010795Y004955D03*
X010165Y004955D03*
X012842Y003302D03*
X011386Y009050D03*
X011307Y009365D03*
D20*
X007528Y005585D01*
X007567Y005270D02*
X011386Y009050D01*
X010795Y004955D02*
X010165Y004955D01*
X010165Y003617D02*
X010835Y003617D01*
X010835Y003302D02*
X010165Y003302D01*
X008118Y003814D02*
X007764Y004286D01*
X012842Y003302D02*
X013461Y003302D01*
X014102Y002660D01*
X004457Y016255D02*
X004535Y017042D01*
D21*
X004299Y017473D02*
X004160Y017531D01*
X003966Y017531D01*
X003786Y017456D01*
X003649Y017319D01*
X003574Y017139D01*
X003574Y016945D01*
X003649Y016765D01*
X003663Y016751D01*
X003663Y016546D01*
X003649Y016531D01*
X003574Y016352D01*
X003574Y016157D01*
X003649Y015978D01*
X003786Y015840D01*
X003966Y015766D01*
X004160Y015766D01*
X004260Y015807D01*
X004359Y015766D01*
X004554Y015766D01*
X004733Y015840D01*
X004871Y015978D01*
X004945Y016157D01*
X004945Y016352D01*
X004891Y016482D01*
X004916Y016732D01*
X004950Y016765D01*
X005024Y016945D01*
X005024Y017139D01*
X004950Y017319D01*
X004812Y017456D01*
X004633Y017531D01*
X004438Y017531D01*
X004299Y017473D01*
X003597Y017193D02*
X001460Y017193D01*
X001460Y017692D02*
X010090Y017692D01*
X009945Y017837D02*
X010326Y017456D01*
X010864Y017456D01*
X011095Y017687D01*
X011326Y017456D01*
X011864Y017456D01*
X012095Y017687D01*
X012326Y017456D01*
X012864Y017456D01*
X013095Y017687D01*
X013326Y017456D01*
X013864Y017456D01*
X014095Y017687D01*
X014326Y017456D01*
X014864Y017456D01*
X015245Y017837D01*
X015245Y018375D01*
X015014Y018606D01*
X015245Y018837D01*
X015245Y019106D01*
X015245Y019375D01*
X014864Y019756D01*
X014595Y019756D01*
X014326Y019756D01*
X014095Y019525D01*
X013864Y019756D01*
X013326Y019756D01*
X013095Y019525D01*
X012864Y019756D01*
X012326Y019756D01*
X012095Y019525D01*
X011864Y019756D01*
X011326Y019756D01*
X011095Y019525D01*
X010864Y019756D01*
X010326Y019756D01*
X009945Y019375D01*
X009945Y018837D01*
X010176Y018606D01*
X009945Y018375D01*
X009945Y017837D01*
X009945Y018190D02*
X002663Y018190D01*
X002489Y018127D02*
X002860Y018262D01*
X003162Y018516D01*
X003360Y018858D01*
X003429Y019247D01*
X003360Y019636D01*
X003162Y019978D01*
X003043Y020078D01*
X016106Y020078D01*
X015987Y019978D01*
X015987Y019978D01*
X015987Y019978D01*
X015790Y019636D01*
X015790Y019636D01*
X015721Y019247D01*
X015721Y019247D01*
X015790Y018858D01*
X015790Y018858D01*
X015987Y018516D01*
X015987Y018516D01*
X016290Y018262D01*
X016661Y018127D01*
X017056Y018127D01*
X017427Y018262D01*
X017689Y018482D01*
X017689Y013219D01*
X014899Y013219D01*
X014770Y013165D01*
X014672Y013067D01*
X014618Y012938D01*
X014618Y010227D01*
X014584Y010227D01*
X014455Y010173D01*
X014357Y010075D01*
X014303Y009946D01*
X014303Y009527D01*
X013653Y009527D01*
X013414Y009428D01*
X013231Y009245D01*
X013132Y009006D01*
X013132Y008748D01*
X013231Y008509D01*
X013414Y008326D01*
X013653Y008227D01*
X014511Y008227D01*
X014750Y008326D01*
X014933Y008509D01*
X015032Y008748D01*
X015032Y008936D01*
X015692Y008936D01*
X015692Y008748D01*
X015791Y008509D01*
X015974Y008326D01*
X016213Y008227D01*
X017071Y008227D01*
X017310Y008326D01*
X017493Y008509D01*
X017592Y008748D01*
X017592Y008936D01*
X017689Y008936D01*
X017689Y002689D01*
X017427Y002909D01*
X017427Y002909D01*
X017056Y003044D01*
X016661Y003044D01*
X016290Y002909D01*
X016290Y002909D01*
X015987Y002655D01*
X015987Y002655D01*
X015987Y002655D01*
X015790Y002313D01*
X015790Y002313D01*
X015726Y001955D01*
X015522Y002160D01*
X015752Y002391D01*
X015752Y002660D01*
X015102Y002660D01*
X015102Y003310D01*
X014833Y003310D01*
X014602Y003079D01*
X014372Y003310D01*
X014032Y003310D01*
X013729Y003614D01*
X013740Y003612D01*
X014082Y003612D01*
X014082Y004262D01*
X014082Y004262D01*
X013132Y004262D01*
X013132Y004220D01*
X013143Y004135D01*
X013165Y004053D01*
X013198Y003974D01*
X013241Y003900D01*
X013292Y003833D01*
X013353Y003772D01*
X013420Y003721D01*
X013435Y003712D01*
X013081Y003712D01*
X012936Y003772D01*
X012749Y003772D01*
X012576Y003700D01*
X012444Y003568D01*
X012372Y003395D01*
X012372Y003208D01*
X012444Y003036D01*
X012501Y002978D01*
X012452Y002929D01*
X012452Y002391D01*
X012683Y002160D01*
X012551Y002028D01*
X012269Y002310D01*
X011731Y002310D01*
X011500Y002079D01*
X011269Y002310D01*
X010731Y002310D01*
X010500Y002079D01*
X010269Y002310D01*
X009731Y002310D01*
X009350Y001929D01*
X009350Y001391D01*
X009648Y001093D01*
X003043Y001093D01*
X003162Y001193D01*
X003162Y001193D01*
X003360Y001535D01*
X003429Y001924D01*
X003360Y002313D01*
X003162Y002655D01*
X002860Y002909D01*
X002860Y002909D01*
X002489Y003044D01*
X002094Y003044D01*
X001723Y002909D01*
X001723Y002909D01*
X001460Y002689D01*
X001460Y018482D01*
X001723Y018262D01*
X002094Y018127D01*
X002489Y018127D01*
X002860Y018262D02*
X002860Y018262D01*
X003162Y018516D02*
X003162Y018516D01*
X003162Y018516D01*
X003262Y018689D02*
X010093Y018689D01*
X009945Y019187D02*
X003418Y019187D01*
X003429Y019247D02*
X003429Y019247D01*
X003360Y019636D02*
X003360Y019636D01*
X003331Y019686D02*
X010256Y019686D01*
X010934Y019686D02*
X011256Y019686D01*
X011934Y019686D02*
X012256Y019686D01*
X012934Y019686D02*
X013256Y019686D01*
X013934Y019686D02*
X014256Y019686D01*
X014595Y019686D02*
X014595Y019686D01*
X014595Y019756D02*
X014595Y019106D01*
X014595Y019106D01*
X014595Y019756D01*
X014934Y019686D02*
X015818Y019686D01*
X015731Y019187D02*
X015245Y019187D01*
X015245Y019106D02*
X014595Y019106D01*
X014595Y019106D01*
X015245Y019106D01*
X015097Y018689D02*
X015887Y018689D01*
X016290Y018262D02*
X016290Y018262D01*
X016486Y018190D02*
X015245Y018190D01*
X015441Y018262D02*
X014598Y019106D01*
X014595Y019187D02*
X014595Y019187D01*
X015100Y017692D02*
X017689Y017692D01*
X017689Y018190D02*
X017230Y018190D01*
X017427Y018262D02*
X017427Y018262D01*
X017689Y017193D02*
X014717Y017193D01*
X014713Y017201D02*
X014576Y017338D01*
X014396Y017413D01*
X014202Y017413D01*
X014024Y017339D01*
X013845Y017413D01*
X013651Y017413D01*
X013471Y017338D01*
X013334Y017201D01*
X013259Y017021D01*
X013259Y016827D01*
X013334Y016647D01*
X013471Y016510D01*
X013651Y016435D01*
X013719Y016435D01*
X014258Y016003D01*
X014318Y015860D01*
X014455Y015722D01*
X014635Y015648D01*
X014829Y015648D01*
X014988Y015713D01*
X015147Y015648D01*
X015341Y015648D01*
X015521Y015722D01*
X015658Y015860D01*
X015733Y016039D01*
X015733Y016234D01*
X015658Y016413D01*
X015521Y016551D01*
X015341Y016625D01*
X015282Y016625D01*
X014778Y017046D01*
X014713Y017201D01*
X015199Y016695D02*
X017689Y016695D01*
X017689Y016196D02*
X015733Y016196D01*
X015462Y015698D02*
X017689Y015698D01*
X017689Y015199D02*
X003462Y015199D01*
X003422Y015216D02*
X003179Y015216D01*
X002955Y015123D01*
X002901Y015068D01*
X002753Y015216D01*
X002501Y015216D01*
X002501Y014606D01*
X002501Y014606D01*
X002501Y015216D01*
X002248Y015216D01*
X001891Y014858D01*
X001891Y014606D01*
X002501Y014606D01*
X002501Y013996D01*
X002753Y013996D01*
X002901Y014143D01*
X002955Y014089D01*
X003179Y013996D01*
X003422Y013996D01*
X003646Y014089D01*
X003818Y014260D01*
X003911Y014484D01*
X003911Y014727D01*
X003818Y014951D01*
X003646Y015123D01*
X003422Y015216D01*
X003140Y015199D02*
X002770Y015199D01*
X002501Y015199D02*
X002501Y015199D01*
X002232Y015199D02*
X001460Y015199D01*
X001460Y014701D02*
X001891Y014701D01*
X001891Y014606D02*
X001891Y014353D01*
X002248Y013996D01*
X002501Y013996D01*
X002501Y014606D01*
X002501Y014606D01*
X002501Y014606D01*
X001891Y014606D01*
X002042Y014202D02*
X001460Y014202D01*
X001460Y013704D02*
X004972Y013704D01*
X004972Y013634D02*
X005046Y013454D01*
X005184Y013317D01*
X005360Y013243D01*
X006133Y012382D01*
X006133Y012338D01*
X006208Y012159D01*
X006345Y012021D01*
X006525Y011947D01*
X006719Y011947D01*
X006899Y012021D01*
X007036Y012159D01*
X007111Y012338D01*
X007111Y012533D01*
X007036Y012713D01*
X006899Y012850D01*
X006722Y012923D01*
X005949Y013785D01*
X005949Y013828D01*
X005875Y014008D01*
X005737Y014145D01*
X005558Y014220D01*
X005363Y014220D01*
X005184Y014145D01*
X005046Y014008D01*
X004972Y013828D01*
X004972Y013634D01*
X005395Y013205D02*
X003359Y013205D01*
X003379Y013186D02*
X003196Y013369D01*
X002957Y013468D01*
X002098Y013468D01*
X001859Y013369D01*
X001676Y013186D01*
X001578Y012947D01*
X001578Y012688D01*
X001676Y012449D01*
X001808Y012318D01*
X001676Y012186D01*
X001578Y011947D01*
X001578Y011688D01*
X001676Y011449D01*
X001859Y011267D01*
X002098Y011168D01*
X002957Y011168D01*
X003196Y011267D01*
X003379Y011449D01*
X003478Y011688D01*
X003478Y011947D01*
X003379Y012186D01*
X003247Y012318D01*
X003379Y012449D01*
X003478Y012688D01*
X003478Y012947D01*
X003379Y013186D01*
X003478Y012707D02*
X004457Y012707D01*
X004452Y012702D02*
X004380Y012529D01*
X004380Y012418D01*
X004339Y012418D01*
X004116Y012325D01*
X003945Y012155D01*
X003852Y011931D01*
X003852Y011690D01*
X003945Y011466D01*
X004101Y011310D01*
X003945Y011155D01*
X003852Y010931D01*
X003852Y010690D01*
X003945Y010466D01*
X004116Y010295D01*
X004339Y010203D01*
X004581Y010203D01*
X004804Y010295D01*
X004975Y010466D01*
X005067Y010690D01*
X005067Y010931D01*
X004975Y011155D01*
X004819Y011310D01*
X004975Y011466D01*
X005023Y011582D01*
X005186Y011514D01*
X005381Y011514D01*
X005560Y011588D01*
X005698Y011726D01*
X005772Y011905D01*
X005772Y012100D01*
X005698Y012279D01*
X005560Y012417D01*
X005418Y012476D01*
X005289Y012605D01*
X005249Y012702D01*
X005117Y012834D01*
X004944Y012906D01*
X004757Y012906D01*
X004584Y012834D01*
X004452Y012702D01*
X003998Y012208D02*
X003356Y012208D01*
X003478Y011710D02*
X003852Y011710D01*
X004001Y011211D02*
X003062Y011211D01*
X003852Y010713D02*
X001460Y010713D01*
X001460Y011211D02*
X001993Y011211D01*
X001578Y011710D02*
X001460Y011710D01*
X001460Y012208D02*
X001699Y012208D01*
X001578Y012707D02*
X001460Y012707D01*
X001460Y013205D02*
X001696Y013205D01*
X002501Y014202D02*
X002501Y014202D01*
X002501Y014701D02*
X002501Y014701D01*
X001460Y015698D02*
X014514Y015698D01*
X014017Y016196D02*
X004945Y016196D01*
X004913Y016695D02*
X013314Y016695D01*
X013331Y017193D02*
X005002Y017193D01*
X003663Y016695D02*
X001460Y016695D01*
X001460Y016196D02*
X003574Y016196D01*
X003911Y014701D02*
X017689Y014701D01*
X017689Y014202D02*
X005600Y014202D01*
X005321Y014202D02*
X003760Y014202D01*
X005244Y012707D02*
X005842Y012707D01*
X005727Y012208D02*
X006187Y012208D01*
X005682Y011710D02*
X014618Y011710D01*
X014618Y011211D02*
X004918Y011211D01*
X005067Y010713D02*
X014618Y010713D01*
X014554Y010214D02*
X004608Y010214D01*
X004312Y010214D02*
X003033Y010214D01*
X003028Y010217D02*
X002943Y010261D01*
X002852Y010291D01*
X002757Y010306D01*
X002449Y010306D01*
X002449Y009696D01*
X002449Y009696D01*
X003319Y009696D01*
X003319Y009744D01*
X003304Y009838D01*
X003274Y009930D01*
X003230Y010015D01*
X003174Y010093D01*
X003106Y010161D01*
X003028Y010217D01*
X003319Y009716D02*
X010993Y009716D01*
X011041Y009763D02*
X010909Y009631D01*
X010849Y009486D01*
X007406Y006044D01*
X007261Y005984D01*
X007129Y005852D01*
X007058Y005679D01*
X007058Y005492D01*
X007104Y005380D01*
X007097Y005364D01*
X007097Y005177D01*
X007168Y005004D01*
X007301Y004872D01*
X007473Y004800D01*
X007660Y004800D01*
X007833Y004872D01*
X007965Y005004D01*
X008024Y005146D01*
X011504Y008590D01*
X011652Y008651D01*
X011784Y008784D01*
X011856Y008956D01*
X011856Y009143D01*
X011784Y009316D01*
X011777Y009323D01*
X011777Y009458D01*
X011705Y009631D01*
X011573Y009763D01*
X011401Y009835D01*
X011214Y009835D01*
X011041Y009763D01*
X011621Y009716D02*
X014303Y009716D01*
X015020Y008719D02*
X015704Y008719D01*
X016133Y007714D02*
X016054Y007681D01*
X015980Y007638D01*
X015913Y007587D01*
X015852Y007526D01*
X015801Y007459D01*
X015758Y007385D01*
X015725Y007306D01*
X015703Y007224D01*
X015692Y007139D01*
X015692Y007097D01*
X016642Y007097D01*
X016642Y007097D01*
X016642Y007747D01*
X016300Y007747D01*
X016215Y007736D01*
X016133Y007714D01*
X016163Y007722D02*
X014561Y007722D01*
X014592Y007714D02*
X014509Y007736D01*
X014425Y007747D01*
X014082Y007747D01*
X013740Y007747D01*
X013655Y007736D01*
X013573Y007714D01*
X013494Y007681D01*
X013420Y007638D01*
X013353Y007587D01*
X013292Y007526D01*
X013241Y007459D01*
X013198Y007385D01*
X013165Y007306D01*
X013143Y007224D01*
X013132Y007139D01*
X013132Y007097D01*
X014082Y007097D01*
X014082Y007097D01*
X014082Y007747D01*
X014082Y007097D01*
X014082Y007097D01*
X013132Y007097D01*
X013132Y007054D01*
X013143Y006970D01*
X013165Y006887D01*
X013198Y006809D01*
X013241Y006735D01*
X013292Y006667D01*
X013353Y006607D01*
X013395Y006574D01*
X013231Y006410D01*
X013132Y006172D01*
X013132Y005913D01*
X013231Y005674D01*
X013414Y005491D01*
X013653Y005392D01*
X014511Y005392D01*
X014750Y005491D01*
X014933Y005674D01*
X015032Y005913D01*
X015032Y006172D01*
X014933Y006410D01*
X014769Y006574D01*
X014812Y006607D01*
X014872Y006667D01*
X014924Y006735D01*
X014966Y006809D01*
X014999Y006887D01*
X015021Y006970D01*
X015032Y007054D01*
X015032Y007097D01*
X015032Y007139D01*
X015021Y007224D01*
X014999Y007306D01*
X014966Y007385D01*
X014924Y007459D01*
X014872Y007526D01*
X014812Y007587D01*
X014744Y007638D01*
X014670Y007681D01*
X014592Y007714D01*
X015021Y007223D02*
X015703Y007223D01*
X015692Y007097D02*
X016642Y007097D01*
X016642Y007097D01*
X016642Y007747D01*
X016985Y007747D01*
X017069Y007736D01*
X017152Y007714D01*
X017230Y007681D01*
X017304Y007638D01*
X017372Y007587D01*
X017432Y007526D01*
X017484Y007459D01*
X017526Y007385D01*
X017559Y007306D01*
X017581Y007224D01*
X017592Y007139D01*
X017592Y007097D01*
X016642Y007097D01*
X016642Y007097D01*
X017592Y007097D01*
X017592Y007054D01*
X017581Y006970D01*
X017559Y006887D01*
X017526Y006809D01*
X017484Y006735D01*
X017432Y006667D01*
X017372Y006607D01*
X017329Y006574D01*
X017493Y006410D01*
X017592Y006172D01*
X017592Y005913D01*
X017493Y005674D01*
X017310Y005491D01*
X017071Y005392D01*
X016213Y005392D01*
X015974Y005491D01*
X015791Y005674D01*
X015692Y005913D01*
X015692Y006172D01*
X015791Y006410D01*
X015955Y006574D01*
X015913Y006607D01*
X015852Y006667D01*
X015801Y006735D01*
X015758Y006809D01*
X015725Y006887D01*
X015703Y006970D01*
X015692Y007054D01*
X015692Y007097D01*
X015808Y006725D02*
X014916Y006725D01*
X015032Y007097D02*
X014082Y007097D01*
X015032Y007097D01*
X015009Y006226D02*
X015715Y006226D01*
X015769Y005728D02*
X014955Y005728D01*
X014592Y004879D02*
X014509Y004901D01*
X014425Y004912D01*
X014082Y004912D01*
X013740Y004912D01*
X013655Y004901D01*
X013573Y004879D01*
X013494Y004846D01*
X013420Y004804D01*
X013353Y004752D01*
X013292Y004692D01*
X013241Y004624D01*
X013198Y004550D01*
X013165Y004472D01*
X013143Y004389D01*
X013132Y004305D01*
X013132Y004262D01*
X014082Y004262D01*
X014082Y004262D01*
X014082Y003612D01*
X014425Y003612D01*
X014509Y003623D01*
X014592Y003645D01*
X014670Y003678D01*
X014744Y003721D01*
X014812Y003772D01*
X014872Y003833D01*
X014924Y003900D01*
X014966Y003974D01*
X014999Y004053D01*
X015021Y004135D01*
X015032Y004220D01*
X015032Y004262D01*
X014082Y004262D01*
X014082Y004262D01*
X014082Y004912D01*
X014082Y004262D01*
X014082Y004262D01*
X015032Y004262D01*
X015032Y004305D01*
X015021Y004389D01*
X014999Y004472D01*
X014966Y004550D01*
X014924Y004624D01*
X014872Y004692D01*
X014812Y004752D01*
X014744Y004804D01*
X014670Y004846D01*
X014592Y004879D01*
X014833Y004731D02*
X015891Y004731D01*
X015913Y004752D02*
X015852Y004692D01*
X015801Y004624D01*
X015758Y004550D01*
X015725Y004472D01*
X015703Y004389D01*
X015692Y004305D01*
X015692Y004262D01*
X015692Y004220D01*
X015703Y004135D01*
X015725Y004053D01*
X015758Y003974D01*
X015801Y003900D01*
X015852Y003833D01*
X015913Y003772D01*
X015980Y003721D01*
X016054Y003678D01*
X016133Y003645D01*
X016215Y003623D01*
X016300Y003612D01*
X016642Y003612D01*
X016642Y004262D01*
X016642Y004262D01*
X015692Y004262D01*
X016642Y004262D01*
X016642Y004262D01*
X016642Y003612D01*
X016985Y003612D01*
X017069Y003623D01*
X017152Y003645D01*
X017230Y003678D01*
X017304Y003721D01*
X017372Y003772D01*
X017432Y003833D01*
X017484Y003900D01*
X017526Y003974D01*
X017559Y004053D01*
X017581Y004135D01*
X017592Y004220D01*
X017592Y004262D01*
X016642Y004262D01*
X016642Y004262D01*
X016642Y004912D01*
X016300Y004912D01*
X016215Y004901D01*
X016133Y004879D01*
X016054Y004846D01*
X015980Y004804D01*
X015913Y004752D01*
X015692Y004232D02*
X015032Y004232D01*
X014761Y003734D02*
X015963Y003734D01*
X015446Y003235D02*
X017689Y003235D01*
X017689Y002737D02*
X017632Y002737D01*
X017689Y003734D02*
X017321Y003734D01*
X017592Y004232D02*
X017689Y004232D01*
X017592Y004262D02*
X017592Y004305D01*
X017581Y004389D01*
X017559Y004472D01*
X017526Y004550D01*
X017484Y004624D01*
X017432Y004692D01*
X017372Y004752D01*
X017304Y004804D01*
X017230Y004846D01*
X017152Y004879D01*
X017069Y004901D01*
X016985Y004912D01*
X016642Y004912D01*
X016642Y004262D01*
X016642Y004262D01*
X017592Y004262D01*
X017689Y004731D02*
X017393Y004731D01*
X017689Y005229D02*
X011186Y005229D01*
X011194Y005222D02*
X011061Y005354D01*
X010889Y005425D01*
X010702Y005425D01*
X010557Y005365D01*
X010404Y005365D01*
X010259Y005425D01*
X010072Y005425D01*
X009899Y005354D01*
X009767Y005222D01*
X009695Y005049D01*
X009695Y004862D01*
X009767Y004689D01*
X009899Y004557D01*
X010072Y004485D01*
X010259Y004485D01*
X010404Y004545D01*
X010557Y004545D01*
X010702Y004485D01*
X010889Y004485D01*
X011061Y004557D01*
X011194Y004689D01*
X011265Y004862D01*
X011265Y005049D01*
X011194Y005222D01*
X011211Y004731D02*
X013331Y004731D01*
X013132Y004232D02*
X008336Y004232D01*
X008308Y004244D02*
X008234Y004343D01*
X008234Y004380D01*
X008162Y004552D01*
X008030Y004685D01*
X007857Y004756D01*
X007670Y004756D01*
X007497Y004685D01*
X007365Y004552D01*
X007294Y004380D01*
X007294Y004193D01*
X007365Y004020D01*
X007497Y003888D01*
X007574Y003856D01*
X007648Y003757D01*
X007648Y003720D01*
X007720Y003547D01*
X007852Y003415D01*
X008025Y003344D01*
X008212Y003344D01*
X008384Y003415D01*
X008517Y003547D01*
X008588Y003720D01*
X008588Y003907D01*
X008517Y004080D01*
X008384Y004212D01*
X008308Y004244D01*
X008588Y003734D02*
X009705Y003734D01*
X009695Y003710D02*
X009695Y003523D01*
X009722Y003459D01*
X009695Y003395D01*
X009695Y003311D01*
X009629Y003339D01*
X009442Y003339D01*
X009345Y003299D01*
X007993Y003299D01*
X007897Y003339D01*
X007710Y003339D01*
X007537Y003267D01*
X007405Y003135D01*
X007333Y002962D01*
X007333Y002775D01*
X007405Y002603D01*
X007537Y002470D01*
X007710Y002399D01*
X007897Y002399D01*
X007993Y002439D01*
X009345Y002439D01*
X009442Y002399D01*
X009629Y002399D01*
X009802Y002470D01*
X009934Y002603D01*
X010005Y002775D01*
X010005Y002859D01*
X010072Y002832D01*
X010259Y002832D01*
X010404Y002892D01*
X010596Y002892D01*
X010741Y002832D01*
X010928Y002832D01*
X011101Y002903D01*
X011233Y003036D01*
X011305Y003208D01*
X011305Y003395D01*
X011278Y003459D01*
X011305Y003523D01*
X011305Y003710D01*
X011233Y003883D01*
X011101Y004015D01*
X010928Y004087D01*
X010741Y004087D01*
X010596Y004027D01*
X010404Y004027D01*
X010259Y004087D01*
X010072Y004087D01*
X009899Y004015D01*
X009767Y003883D01*
X009695Y003710D01*
X009750Y004731D02*
X007918Y004731D01*
X007609Y004731D02*
X001460Y004731D01*
X001460Y004232D02*
X003156Y004232D01*
X003144Y004220D02*
X003057Y004010D01*
X003057Y003784D01*
X003144Y003574D01*
X003304Y003414D01*
X003514Y003327D01*
X004181Y003327D01*
X004390Y003414D01*
X004550Y003574D01*
X004637Y003784D01*
X004637Y004010D01*
X004550Y004220D01*
X004390Y004380D01*
X004181Y004467D01*
X003514Y004467D01*
X003304Y004380D01*
X003144Y004220D01*
X003078Y003734D02*
X001460Y003734D01*
X001460Y003235D02*
X007505Y003235D01*
X007349Y002737D02*
X006652Y002737D01*
X006579Y002767D02*
X006788Y002680D01*
X006948Y002520D01*
X007034Y002312D01*
X007034Y002086D01*
X006948Y001877D01*
X006788Y001717D01*
X006579Y001631D01*
X006353Y001631D01*
X006144Y001717D01*
X005984Y001877D01*
X005964Y001925D01*
X005952Y001901D01*
X005899Y001829D01*
X005836Y001765D01*
X005764Y001713D01*
X005684Y001672D01*
X005599Y001645D01*
X005511Y001631D01*
X005466Y001631D01*
X005466Y002199D01*
X005466Y002767D01*
X005421Y002767D01*
X005333Y002753D01*
X005248Y002725D01*
X005168Y002685D01*
X005096Y002632D01*
X005033Y002569D01*
X004980Y002496D01*
X004968Y002472D01*
X004948Y002520D01*
X004788Y002680D01*
X004579Y002767D01*
X004353Y002767D01*
X004144Y002680D01*
X003984Y002520D01*
X003898Y002312D01*
X003898Y002086D01*
X003984Y001877D01*
X004144Y001717D01*
X004353Y001631D01*
X004579Y001631D01*
X004788Y001717D01*
X004948Y001877D01*
X004968Y001925D01*
X004980Y001901D01*
X005033Y001829D01*
X005096Y001765D01*
X005168Y001713D01*
X005248Y001672D01*
X005333Y001645D01*
X005421Y001631D01*
X005466Y001631D01*
X005466Y002199D01*
X005466Y002199D01*
X005466Y002767D01*
X005511Y002767D01*
X005599Y002753D01*
X005684Y002725D01*
X005764Y002685D01*
X005836Y002632D01*
X005899Y002569D01*
X005952Y002496D01*
X005964Y002472D01*
X005984Y002520D01*
X006144Y002680D01*
X006353Y002767D01*
X006579Y002767D01*
X006281Y002737D02*
X005648Y002737D01*
X005466Y002737D02*
X005466Y002737D01*
X005284Y002737D02*
X004652Y002737D01*
X004281Y002737D02*
X003065Y002737D01*
X003162Y002655D02*
X003162Y002655D01*
X003360Y002313D02*
X003360Y002313D01*
X003373Y002238D02*
X003898Y002238D01*
X004122Y001740D02*
X003396Y001740D01*
X003429Y001924D02*
X003429Y001924D01*
X003360Y001535D02*
X003360Y001535D01*
X003190Y001241D02*
X009500Y001241D01*
X009350Y001740D02*
X006811Y001740D01*
X007034Y002238D02*
X009659Y002238D01*
X009989Y002737D02*
X012452Y002737D01*
X012372Y003235D02*
X011305Y003235D01*
X011295Y003734D02*
X012657Y003734D01*
X013028Y003734D02*
X013403Y003734D01*
X014082Y003734D02*
X014082Y003734D01*
X014082Y004232D02*
X014082Y004232D01*
X014082Y004731D02*
X014082Y004731D01*
X013209Y005728D02*
X008612Y005728D01*
X008108Y005229D02*
X009775Y005229D01*
X009116Y006226D02*
X013155Y006226D01*
X013248Y006725D02*
X009619Y006725D01*
X010123Y007223D02*
X013143Y007223D01*
X013603Y007722D02*
X010627Y007722D01*
X011130Y008220D02*
X017689Y008220D01*
X017689Y007722D02*
X017121Y007722D01*
X017581Y007223D02*
X017689Y007223D01*
X017689Y006725D02*
X017476Y006725D01*
X017569Y006226D02*
X017689Y006226D01*
X017689Y005728D02*
X017515Y005728D01*
X016642Y004731D02*
X016642Y004731D01*
X016642Y004232D02*
X016642Y004232D01*
X016642Y003734D02*
X016642Y003734D01*
X016085Y002737D02*
X015752Y002737D01*
X015752Y002660D02*
X015752Y002929D01*
X015372Y003310D01*
X015102Y003310D01*
X015102Y002660D01*
X015102Y002660D01*
X015102Y002660D01*
X015752Y002660D01*
X015776Y002238D02*
X015600Y002238D01*
X015102Y002737D02*
X015102Y002737D01*
X015102Y003235D02*
X015102Y003235D01*
X014758Y003235D02*
X014446Y003235D01*
X012605Y002238D02*
X012341Y002238D01*
X011659Y002238D02*
X011341Y002238D01*
X010659Y002238D02*
X010341Y002238D01*
X007648Y003734D02*
X004616Y003734D01*
X004538Y004232D02*
X007294Y004232D01*
X007097Y005229D02*
X001460Y005229D01*
X001460Y005728D02*
X003057Y005728D01*
X003057Y005705D02*
X003144Y005495D01*
X003304Y005335D01*
X003514Y005248D01*
X004181Y005248D01*
X004390Y005335D01*
X004550Y005495D01*
X004637Y005705D01*
X004637Y005932D01*
X004550Y006141D01*
X004390Y006302D01*
X004181Y006388D01*
X003514Y006388D01*
X003304Y006302D01*
X003144Y006141D01*
X003057Y005932D01*
X003057Y005705D01*
X003229Y006226D02*
X001460Y006226D01*
X001460Y006725D02*
X008087Y006725D01*
X007589Y006226D02*
X004465Y006226D01*
X004637Y005728D02*
X007078Y005728D01*
X006022Y007234D02*
X006154Y007366D01*
X006226Y007539D01*
X006226Y007726D01*
X006154Y007899D01*
X006022Y008031D01*
X005849Y008103D01*
X005662Y008103D01*
X005493Y008033D01*
X004995Y008033D01*
X004826Y008103D01*
X004639Y008103D01*
X004466Y008031D01*
X004334Y007899D01*
X004262Y007726D01*
X004262Y007539D01*
X004334Y007366D01*
X004466Y007234D01*
X004639Y007163D01*
X004826Y007163D01*
X004995Y007233D01*
X005493Y007233D01*
X005662Y007163D01*
X005849Y007163D01*
X006022Y007234D01*
X005996Y007223D02*
X008586Y007223D01*
X009084Y007722D02*
X006226Y007722D01*
X006581Y008202D02*
X006761Y008128D01*
X006955Y008128D01*
X007097Y008187D01*
X007613Y008187D01*
X007710Y008147D01*
X007897Y008147D01*
X008069Y008218D01*
X008202Y008351D01*
X008273Y008523D01*
X008273Y008710D01*
X008202Y008883D01*
X008069Y009015D01*
X007897Y009087D01*
X007710Y009087D01*
X007613Y009047D01*
X007097Y009047D01*
X006955Y009106D01*
X006761Y009106D01*
X006581Y009031D01*
X006444Y008894D01*
X006369Y008714D01*
X006369Y008520D01*
X006444Y008340D01*
X006581Y008202D01*
X006564Y008220D02*
X003096Y008220D01*
X003071Y008196D02*
X003226Y008350D01*
X003319Y008574D01*
X003319Y008817D01*
X003226Y009041D01*
X003066Y009201D01*
X003106Y009230D01*
X003174Y009298D01*
X003230Y009376D01*
X003274Y009461D01*
X003304Y009553D01*
X003319Y009648D01*
X003319Y009696D01*
X002449Y009696D01*
X002449Y009696D01*
X002449Y010306D01*
X002141Y010306D01*
X002046Y010291D01*
X001955Y010261D01*
X001869Y010217D01*
X001791Y010161D01*
X001723Y010093D01*
X001667Y010015D01*
X001623Y009930D01*
X001594Y009838D01*
X001579Y009744D01*
X001579Y009696D01*
X002449Y009696D01*
X002449Y009696D01*
X001579Y009696D01*
X001579Y009648D01*
X001594Y009553D01*
X001623Y009461D01*
X001667Y009376D01*
X001723Y009298D01*
X001791Y009230D01*
X001832Y009201D01*
X001672Y009041D01*
X001579Y008817D01*
X001579Y008574D01*
X001672Y008350D01*
X001826Y008196D01*
X001672Y008041D01*
X001579Y007817D01*
X001579Y007574D01*
X001672Y007350D01*
X001843Y007178D01*
X002067Y007086D01*
X002830Y007086D01*
X003054Y007178D01*
X003226Y007350D01*
X003319Y007574D01*
X003319Y007817D01*
X003226Y008041D01*
X003071Y008196D01*
X003319Y007722D02*
X004262Y007722D01*
X004492Y007223D02*
X003099Y007223D01*
X001798Y007223D02*
X001460Y007223D01*
X001460Y007722D02*
X001579Y007722D01*
X001460Y008220D02*
X001801Y008220D01*
X001579Y008719D02*
X001460Y008719D01*
X001460Y009217D02*
X001809Y009217D01*
X001579Y009716D02*
X001460Y009716D01*
X001460Y010214D02*
X001865Y010214D01*
X002449Y010214D02*
X002449Y010214D01*
X002449Y009716D02*
X002449Y009716D01*
X003088Y009217D02*
X010580Y009217D01*
X010081Y008719D02*
X008270Y008719D01*
X008071Y008220D02*
X009583Y008220D01*
X011719Y008719D02*
X013144Y008719D01*
X013220Y009217D02*
X011825Y009217D01*
X014082Y007722D02*
X014082Y007722D01*
X014082Y007223D02*
X014082Y007223D01*
X014082Y007097D02*
X014082Y007097D01*
X016642Y007223D02*
X016642Y007223D01*
X016642Y007722D02*
X016642Y007722D01*
X017580Y008719D02*
X017689Y008719D01*
X014618Y012208D02*
X007057Y012208D01*
X007039Y012707D02*
X014618Y012707D01*
X014866Y013205D02*
X006469Y013205D01*
X006022Y013704D02*
X017689Y013704D01*
X015026Y015698D02*
X014950Y015698D01*
X006371Y008719D02*
X003319Y008719D01*
X004972Y007223D02*
X005516Y007223D01*
X001518Y002737D02*
X001460Y002737D01*
X003162Y001193D02*
X003162Y001193D01*
X004811Y001740D02*
X005131Y001740D01*
X005466Y001740D02*
X005466Y001740D01*
X005801Y001740D02*
X006122Y001740D01*
X005466Y002199D02*
X005466Y002199D01*
X005466Y002238D02*
X005466Y002238D01*
X001919Y018190D02*
X001460Y018190D01*
X001723Y018262D02*
X001723Y018262D01*
X003162Y019978D02*
X003162Y019978D01*
X003360Y018858D02*
X003360Y018858D01*
D22*
X005677Y017436D02*
X005857Y017399D01*
X005362Y016255D02*
X005283Y016255D01*
X005244Y016255D01*
X005084Y016094D01*
X005126Y016018D01*
X005756Y015388D01*
X005756Y015310D01*
X005638Y015310D01*
X005638Y014050D01*
X006228Y013459D01*
X009651Y009250D02*
X009811Y009089D01*
X012331Y006924D02*
X012672Y006933D01*
X002501Y014606D02*
X002409Y014601D01*
X002291Y014601D01*
D23*
X002173Y016570D03*
X004063Y016255D03*
X004457Y016255D03*
X004535Y017042D03*
X004063Y017042D03*
X005362Y016255D03*
X006504Y015361D03*
X007213Y015349D03*
X008827Y016806D03*
X008433Y018696D03*
X005795Y017751D03*
X005461Y013731D03*
X006228Y013459D03*
X006622Y012436D03*
X005283Y012003D03*
X007803Y010113D03*
X008590Y010782D03*
X006858Y008617D03*
X007134Y007003D03*
X005913Y006215D03*
X009457Y006648D03*
X011307Y006412D03*
X012331Y006924D03*
X011307Y007947D03*
X013118Y004640D03*
X007567Y001412D03*
X002016Y004916D03*
X012291Y014601D03*
X013748Y016924D03*
X014299Y016924D03*
X014732Y016136D03*
X015244Y016136D03*
X016701Y017003D03*
X014575Y011570D03*
D24*
X009457Y006648D02*
X009653Y006451D01*
X007803Y008617D02*
X006858Y008617D01*
X004063Y011215D02*
X003964Y011310D01*
X004063Y011215D01*
X005283Y012003D02*
X004850Y012436D01*
X007803Y002869D02*
X009535Y002869D01*
X013006Y004813D02*
X013118Y004640D01*
X014929Y003105D02*
X015102Y002660D01*
X014929Y003105D02*
X015402Y003577D01*
D25*
X014595Y019106D02*
X014598Y019106D01*
D26*
X014299Y016924D02*
X015244Y016136D01*
X014732Y016136D02*
X013748Y016924D01*
X006622Y012436D02*
X005461Y013731D01*
X004063Y016255D02*
X004063Y017042D01*
X004732Y007633D02*
X005756Y007633D01*
M02*
